<svg width="92" height="69" fill="none" xmlns="http://www.w3.org/2000/svg">
  <path
    d="M43.5 44l-.26-1.5s-.905 0-.905-2V37 27c0-9.59-4.305-14.385-12.915-14.385-3.99 0-7.21 1.015-9.66 3.045-2.45 1.96-4.06 4.76-4.83 8.4L8 22.8a20.4 20.4 0 013.57-8.4c1.82-2.59 4.235-4.62 7.245-6.09C21.825 6.77 25.395 6 29.525 6c9.52 0 15.61 3.85 18.27 11.55 1.72 4.979.445 1.45 1.945 7.95.757 3.282.575 1 .575 4.02 0 0-.425.98 0 2.48 0 0-.116-.5 0 3v.715c.14 5.53 1.785 9.8 4.935 12.81 3.15 2.94 7.525 4.41 13.125 4.41 2.87 0 5.565-.595 8.085-1.785 2.59-1.26 4.795-3.185 6.615-5.775l4.935 4.41c-4.69 6.79-11.375 10.185-20.055 10.185-10.78 0-19.215-4.47-22.715-12.97-2.24-4-1.74-3-1.74-3z"
    fill="#979797" />
  <circle cx="25.667" cy="44.217" r="17.206" transform="rotate(-24.345 25.667 44.217)" fill="url(#paint0_linear)"
    stroke="#505050" stroke-width="3" />
  <circle cx="66.949" cy="25.538" r="17.206" transform="rotate(-24.345 66.949 25.538)" fill="url(#paint1_linear)"
    stroke="#505050" stroke-width="3" />
  <path d="M40.626 37.628l5.247-3.34 5.972-1.736" stroke="#505050" stroke-width="5" />
  <defs>
    <linearGradient id="paint0_linear" x1="6.961" y1="44.217" x2="44.373" y2="44.217" gradientUnits="userSpaceOnUse">
      <stop stop-color="#ACCBEE" />
      <stop offset="1" stop-color="#E7F0FD" />
    </linearGradient>
    <linearGradient id="paint1_linear" x1="48.243" y1="25.538" x2="85.655" y2="25.538" gradientUnits="userSpaceOnUse">
      <stop stop-color="#ACCBEE" />
      <stop offset="1" stop-color="#E7F0FD" />
    </linearGradient>
  </defs>
</svg>